<svg width="43" height="43" viewBox="0 0 43 43" fill="none" xmlns="http://www.w3.org/2000/svg">
<g clip-path="url(#clip0_8_59)">
<path d="M19.9475 5.31894C20.6524 4.19924 22.306 4.19924 23.0109 5.31894L24.7005 8.0029C25.164 8.73904 26.0989 9.03832 26.913 8.71115L29.8812 7.51827C31.1195 7.02062 32.4573 7.97821 32.3596 9.29227L32.1253 12.4421C32.061 13.3061 32.6388 14.0896 33.4926 14.2963L36.6057 15.0502C37.9044 15.3647 38.4154 16.9141 37.5523 17.9206L35.4836 20.3332C34.9162 20.9949 34.9162 21.9634 35.4836 22.6251L37.5523 25.0378C38.4154 26.0443 37.9044 27.5937 36.6057 27.9081L33.4926 28.662C32.6388 28.8688 32.061 29.6523 32.1253 30.5162L32.3596 33.6661C32.4573 34.9801 31.1195 35.9377 29.8812 35.4401L26.913 34.2472C26.0989 33.92 25.164 34.2193 24.7005 34.9554L23.0109 37.6394C22.306 38.7591 20.6524 38.7591 19.9475 37.6394L18.2578 34.9554C17.7944 34.2193 16.8594 33.92 16.0453 34.2472L13.0771 35.4401C11.8388 35.9377 10.501 34.9801 10.5988 33.6661L10.833 30.5162C10.8973 29.6523 10.3195 28.8688 9.46568 28.662L6.35265 27.9082C5.05395 27.5937 4.54297 26.0443 5.40601 25.0378L7.47476 22.6251C8.04216 21.9634 8.04216 20.9949 7.47476 20.3332L5.40601 17.9206C4.54297 16.9141 5.05395 15.3647 6.35265 15.0502L9.46568 14.2963C10.3195 14.0896 10.8973 13.3061 10.833 12.4421L10.5988 9.29227C10.501 7.97821 11.8388 7.02062 13.0771 7.51827L16.0453 8.71115C16.8594 9.03832 17.7944 8.73904 18.2578 8.0029L19.9475 5.31894Z" fill="white"/>
</g>
<defs>
<clipPath id="clip0_8_59">
<rect width="34.0417" height="34.0417" fill="white" transform="translate(4.47917 4.47917)"/>
</clipPath>
</defs>
</svg>
