<svg width="34" height="34" viewBox="0 0 34 34" fill="none" xmlns="http://www.w3.org/2000/svg">
<g clip-path="url(#clip0_7_24)">
<path d="M15.4683 0.839776C16.1732 -0.279924 17.8268 -0.279926 18.5317 0.839775L20.2214 3.52373C20.6848 4.25987 21.6197 4.55915 22.4338 4.23198L25.4021 3.0391C26.6404 2.54145 27.9781 3.49904 27.8804 4.8131L27.6461 7.96297C27.5819 8.82689 28.1597 9.61042 29.0135 9.81717L32.1265 10.571C33.4252 10.8855 33.9362 12.4349 33.0731 13.4414L31.0044 15.854C30.437 16.5158 30.437 17.4842 31.0044 18.146L33.0731 20.5586C33.9362 21.5651 33.4252 23.1145 32.1265 23.429L29.0135 24.1828C28.1597 24.3896 27.5819 25.1731 27.6461 26.037L27.8804 29.1869C27.9781 30.501 26.6404 31.4585 25.4021 30.9609L22.4338 29.768C21.6197 29.4408 20.6848 29.7401 20.2214 30.4763L18.5317 33.1602C17.8268 34.2799 16.1732 34.2799 15.4683 33.1602L13.7786 30.4763C13.3152 29.7401 12.3803 29.4408 11.5662 29.768L8.59794 30.9609C7.35964 31.4585 6.02187 30.501 6.1196 29.1869L6.35388 26.037C6.41814 25.1731 5.84033 24.3896 4.98651 24.1828L1.87348 23.429C0.574785 23.1145 0.0637996 21.5651 0.926845 20.5586L2.99559 18.146C3.56299 17.4842 3.56299 16.5158 2.99559 15.854L0.926846 13.4414C0.0638008 12.4349 0.574783 10.8855 1.87348 10.571L4.98651 9.81717C5.84033 9.61042 6.41814 8.82689 6.35388 7.96297L6.1196 4.81311C6.02187 3.49904 7.35964 2.54145 8.59794 3.0391L11.5662 4.23198C12.3803 4.55915 13.3152 4.25987 13.7786 3.52373L15.4683 0.839776Z" fill="#A2AF9B"/>
</g>
<defs>
<clipPath id="clip0_7_24">
<rect width="34" height="34" fill="white"/>
</clipPath>
</defs>
</svg>
